<?xml version="1.0" standalone="no"?>
<!DOCTYPE svg PUBLIC "-//W3C//DTD SVG 20010904//EN"
 "http://www.w3.org/TR/2001/REC-SVG-20010904/DTD/svg10.dtd">
<svg version="1.0" xmlns="http://www.w3.org/2000/svg"
 width="700.000000pt" height="700.000000pt" viewBox="0 0 700.000000 700.000000"
 preserveAspectRatio="xMidYMid meet">
<metadata>
Created by potrace 1.11, written by Peter Selinger 2001-2013
</metadata>
<g transform="translate(0.000000,700.000000) scale(0.100000,-0.100000)"
fill="#000000" stroke="none">
<path d="M3280 6994 c-19 -2 -87 -9 -150 -15 -827 -78 -1641 -499 -2207 -1142
-481 -547 -764 -1180 -860 -1922 -25 -197 -25 -633 0 -830 96 -742 379 -1375
860 -1922 567 -645 1348 -1049 2212 -1145 152 -17 567 -17 705 0 688 83 1272
326 1794 744 136 109 422 397 530 533 412 520 651 1095 748 1795 18 129 18
691 0 820 -97 700 -336 1275 -748 1795 -108 136 -394 424 -530 533 -509 408
-1090 654 -1744 737 -117 15 -532 28 -610 19z m1444 -1759 c25 -26 55 -120 67
-216 9 -69 9 -121 0 -220 -6 -71 -14 -135 -16 -142 -3 -6 27 -54 65 -105 165
-220 218 -403 207 -726 -8 -262 -50 -447 -135 -602 -143 -262 -389 -394 -851
-459 -57 -8 -106 -17 -108 -19 -2 -1 15 -15 37 -30 49 -32 113 -128 134 -199
27 -93 36 -241 36 -569 0 -369 -4 -350 91 -429 101 -85 104 -88 85 -107 -20
-21 -148 -23 -213 -4 -59 17 -132 70 -168 120 l-30 43 -7 327 c-5 180 -10 350
-13 378 -7 57 -37 114 -60 114 -15 0 -16 -44 -13 -427 l3 -428 26 -51 c15 -28
41 -70 58 -94 57 -79 33 -120 -57 -96 -67 17 -156 71 -201 123 -73 82 -75 95
-81 578 l-5 430 -31 3 -32 3 -5 -393 c-5 -418 -13 -507 -51 -573 -56 -95 -175
-175 -262 -175 -72 0 -82 30 -29 89 56 61 66 98 76 271 10 195 12 750 1 750
-16 0 -61 -85 -66 -124 -3 -22 -8 -189 -11 -370 -7 -368 -5 -358 -81 -425 -68
-59 -140 -85 -246 -85 -47 -1 -89 2 -93 6 -18 17 9 57 67 101 35 26 74 64 88
84 25 36 25 39 28 278 l3 242 -158 -5 c-179 -5 -237 3 -333 49 -122 57 -193
137 -265 295 -47 104 -111 190 -180 244 -105 83 -115 92 -115 109 0 31 22 41
95 41 116 -1 187 -47 318 -210 87 -108 147 -169 187 -190 105 -54 324 -53 431
1 31 15 39 26 49 68 14 59 54 124 116 191 l45 48 -88 12 c-331 45 -565 142
-741 305 -154 142 -257 359 -291 610 -30 220 -21 432 24 573 28 89 83 187 155
277 l50 63 -17 74 c-26 116 -24 331 5 437 13 46 30 97 38 114 l16 30 71 -6
c134 -10 323 -87 499 -202 l88 -57 47 16 c232 77 804 85 1064 16 34 -9 43 -6
130 45 252 150 502 231 553 180z"/>
</g>
</svg>
